<mxfile host="app.diagrams.net" modified="2023-04-28T11:02:19.711Z" agent="Mozilla/5.0 (X11; Linux x86_64) AppleWebKit/537.36 (KHTML, like Gecko) Chrome/112.0.0.0 Safari/537.36" etag="-rOZeuf45nZr4-OsRSv5" version="21.2.3" type="github">
  <diagram id="6a731a19-8d31-9384-78a2-239565b7b9f0" name="Page-1">
    <mxGraphModel dx="533" dy="775" grid="1" gridSize="10" guides="1" tooltips="1" connect="1" arrows="1" fold="1" page="1" pageScale="1" pageWidth="827" pageHeight="1169" background="none" math="0" shadow="0">
      <root>
        <mxCell id="0" />
        <mxCell id="1" parent="0" />
        <mxCell id="979" value="" style="whiteSpace=wrap;html=1;strokeColor=none;fillColor=#333333;fontFamily=Verdana;fontSize=24;fontColor=#FFFFFF;align=center;" parent="1" vertex="1">
          <mxGeometry x="856.5" y="40" width="776" height="1700" as="geometry" />
        </mxCell>
        <mxCell id="980" value="" style="ellipse;whiteSpace=wrap;html=1;fontFamily=Verdana;fontSize=16;fontColor=#DDDDDD;strokeColor=none;fillColor=#282828;" parent="1" vertex="1">
          <mxGeometry x="896" y="271" width="350" height="350" as="geometry" />
        </mxCell>
        <mxCell id="981" value="" style="ellipse;whiteSpace=wrap;html=1;fontFamily=Verdana;fontSize=16;fontColor=#DDDDDD;strokeColor=none;fillColor=#282828;" parent="1" vertex="1">
          <mxGeometry x="896" y="764" width="350" height="350" as="geometry" />
        </mxCell>
        <mxCell id="982" value="" style="ellipse;whiteSpace=wrap;html=1;fontFamily=Verdana;fontSize=16;fontColor=#DDDDDD;strokeColor=none;fillColor=#282828;" parent="1" vertex="1">
          <mxGeometry x="896" y="1256" width="350" height="350" as="geometry" />
        </mxCell>
        <mxCell id="983" value="" style="ellipse;whiteSpace=wrap;html=1;fontFamily=Verdana;fontSize=16;fontColor=#DDDDDD;strokeColor=none;fillColor=#282828;" parent="1" vertex="1">
          <mxGeometry x="1223" y="1010" width="350" height="350" as="geometry" />
        </mxCell>
        <mxCell id="984" value="" style="ellipse;whiteSpace=wrap;html=1;fontFamily=Verdana;fontSize=16;fontColor=#DDDDDD;strokeColor=none;fillColor=#282828;" parent="1" vertex="1">
          <mxGeometry x="1223" y="518" width="350" height="350" as="geometry" />
        </mxCell>
        <mxCell id="985" value="MANJE JE VIŠE" style="text;html=1;resizable=0;points=[];autosize=1;align=left;verticalAlign=top;spacingTop=-4;fontSize=24;fontFamily=Verdana;fontColor=#DDDDDD;fontStyle=1" parent="1" vertex="1">
          <mxGeometry x="948.9999999999999" y="386" width="200" height="40" as="geometry" />
        </mxCell>
        <mxCell id="986" value="1&amp;nbsp;" style="text;html=1;resizable=0;points=[];autosize=1;align=left;verticalAlign=top;spacingTop=-4;fontSize=100;fontFamily=Verdana;fontColor=#F18808;fontStyle=1" parent="1" vertex="1">
          <mxGeometry x="873" y="309" width="110" height="120" as="geometry" />
        </mxCell>
        <mxCell id="987" value="2" style="text;html=1;resizable=0;points=[];autosize=1;align=left;verticalAlign=top;spacingTop=-4;fontSize=100;fontFamily=Verdana;fontColor=#F18808;fontStyle=1" parent="1" vertex="1">
          <mxGeometry x="1194" y="531" width="74" height="120" as="geometry" />
        </mxCell>
        <mxCell id="988" value="3" style="text;html=1;resizable=0;points=[];autosize=1;align=left;verticalAlign=top;spacingTop=-4;fontSize=100;fontFamily=Verdana;fontColor=#F18808;fontStyle=1" parent="1" vertex="1">
          <mxGeometry x="875" y="799" width="74" height="120" as="geometry" />
        </mxCell>
        <mxCell id="989" value="4" style="text;html=1;resizable=0;points=[];autosize=1;align=left;verticalAlign=top;spacingTop=-4;fontSize=100;fontFamily=Verdana;fontColor=#F18808;fontStyle=1" parent="1" vertex="1">
          <mxGeometry x="1199" y="1029" width="74" height="120" as="geometry" />
        </mxCell>
        <mxCell id="990" value="5" style="text;html=1;resizable=0;points=[];autosize=1;align=left;verticalAlign=top;spacingTop=-4;fontSize=100;fontFamily=Verdana;fontColor=#F18808;fontStyle=1" parent="1" vertex="1">
          <mxGeometry x="874" y="1251" width="74" height="120" as="geometry" />
        </mxCell>
        <mxCell id="991" value="&lt;div style=&quot;line-height: 120%&quot;&gt;&lt;font style=&quot;line-height: 120%&quot;&gt;&lt;div&gt;Više otpada se prikupi&lt;/div&gt;&lt;/font&gt;&lt;/div&gt;" style="text;resizable=0;points=[];autosize=1;align=left;verticalAlign=top;spacingTop=-4;fontSize=16;fontFamily=Verdana;fontColor=#888888;html=1;" parent="1" vertex="1">
          <mxGeometry x="949" y="459" width="170" height="30" as="geometry" />
        </mxCell>
        <mxCell id="992" value="&lt;b&gt;&lt;font style=&quot;font-size: 57px;&quot;&gt;ISTI DAN BOLJI DAN&lt;/font&gt;&lt;/b&gt;" style="whiteSpace=wrap;html=1;strokeColor=none;fillColor=none;fontFamily=Verdana;fontSize=70;fontColor=#dddddd;align=left;" parent="1" vertex="1">
          <mxGeometry x="888" y="79" width="700" height="78" as="geometry" />
        </mxCell>
        <mxCell id="993" value="&lt;span&gt;za ekologiju&lt;/span&gt;" style="text;html=1;resizable=0;points=[];autosize=1;align=left;verticalAlign=top;spacingTop=-4;fontSize=35;fontFamily=Verdana;fontColor=#888888;" parent="1" vertex="1">
          <mxGeometry x="892" y="163" width="200" height="50" as="geometry" />
        </mxCell>
        <mxCell id="994" value="SVAKI KORAK &lt;br&gt;SE PRATI" style="text;html=1;resizable=0;points=[];autosize=1;align=left;verticalAlign=top;spacingTop=-4;fontSize=24;fontFamily=Verdana;fontColor=#DDDDDD;fontStyle=1" parent="1" vertex="1">
          <mxGeometry x="1275" y="604" width="190" height="70" as="geometry" />
        </mxCell>
        <mxCell id="996" value="&lt;div style=&quot;line-height: 150%&quot;&gt;NEMA LAŽI&amp;nbsp;&lt;/div&gt;&lt;div style=&quot;line-height: 150%&quot;&gt;NEMA PREVARE&lt;/div&gt;" style="text;html=1;resizable=0;points=[];autosize=1;align=left;verticalAlign=top;spacingTop=-4;fontSize=24;fontFamily=Verdana;fontColor=#DDDDDD;fontStyle=1" parent="1" vertex="1">
          <mxGeometry x="1275" y="1079" width="210" height="80" as="geometry" />
        </mxCell>
        <mxCell id="997" value="&lt;div style=&quot;line-height: 150%&quot;&gt;DON’T MESS&amp;nbsp;&lt;br&gt;&lt;span&gt;WITH ALIGNMENT&amp;nbsp;&lt;br&gt;&lt;/span&gt;&lt;span&gt;AND SPACING&lt;/span&gt;&lt;/div&gt;" style="text;html=1;resizable=0;points=[];autosize=1;align=left;verticalAlign=top;spacingTop=-4;fontSize=24;fontFamily=Verdana;fontColor=#DDDDDD;fontStyle=1" parent="1" vertex="1">
          <mxGeometry x="948.9999999999999" y="1324" width="240" height="110" as="geometry" />
        </mxCell>
        <mxCell id="998" value="Koristi se manje goriva" style="text;html=1;resizable=0;points=[];autosize=1;align=left;verticalAlign=top;spacingTop=-4;fontSize=16;fontColor=#888888;fontFamily=Verdana;" parent="1" vertex="1">
          <mxGeometry x="949" y="430" width="170" height="30" as="geometry" />
        </mxCell>
        <mxCell id="999" value="Senzori u svakom trenutku znaju i &lt;br&gt;dijele stanje kontejnera i kante" style="text;html=1;resizable=0;points=[];autosize=1;align=left;verticalAlign=top;spacingTop=-4;fontSize=16;fontColor=#888888;fontFamily=Verdana;" parent="1" vertex="1">
          <mxGeometry x="1275" y="687" width="240" height="50" as="geometry" />
        </mxCell>
        <mxCell id="1000" value="&lt;div style=&quot;line-height: 120%&quot;&gt;&lt;font style=&quot;line-height: 120%&quot;&gt;&lt;div&gt;Uređaji na vozilima dijele lokaciju i&amp;nbsp;&lt;/div&gt;&lt;div&gt;informacije na otpadu&amp;nbsp;&lt;/div&gt;&lt;/font&gt;&lt;/div&gt;" style="text;resizable=0;points=[];autosize=1;align=left;verticalAlign=top;spacingTop=-4;fontSize=16;fontFamily=Verdana;fontColor=#888888;html=1;" parent="1" vertex="1">
          <mxGeometry x="1275" y="735" width="260" height="50" as="geometry" />
        </mxCell>
        <mxCell id="1004" value="Each section or group of&lt;br&gt;content should use the same&lt;br&gt;spacing to the next, and should&lt;br&gt;be strictly aligned." style="text;html=1;resizable=0;points=[];autosize=1;align=left;verticalAlign=top;spacingTop=-4;fontSize=16;fontColor=#888888;fontFamily=Verdana;" parent="1" vertex="1">
          <mxGeometry x="949" y="1442" width="265" height="73" as="geometry" />
        </mxCell>
        <mxCell id="1007" value="" style="endArrow=oval;html=1;strokeColor=#666666;fontFamily=Verdana;fontSize=16;fontColor=#DDDDDD;endFill=1;rounded=1;endSize=6;startArrow=oval;startFill=1;strokeWidth=2;movable=1;resizable=1;rotatable=1;deletable=1;editable=1;connectable=1;" parent="1" edge="1">
          <mxGeometry width="50" height="50" relative="1" as="geometry">
            <mxPoint x="1169" y="717" as="sourcePoint" />
            <mxPoint x="1246" y="438" as="targetPoint" />
            <Array as="points">
              <mxPoint x="1082" y="717" />
              <mxPoint x="1082" y="527" />
              <mxPoint x="1246" y="527" />
            </Array>
          </mxGeometry>
        </mxCell>
        <mxCell id="1008" value="" style="endArrow=oval;html=1;strokeColor=#666666;fontFamily=Verdana;fontSize=16;fontColor=#DDDDDD;endFill=0;rounded=1;endSize=6;startArrow=oval;startFill=0;dashed=1;strokeWidth=2;dashPattern=1 1;" parent="1" edge="1">
          <mxGeometry x="1092" y="448" width="50" height="50" as="geometry">
            <mxPoint x="1091" y="663" as="sourcePoint" />
            <mxPoint x="1091" y="589" as="targetPoint" />
          </mxGeometry>
        </mxCell>
        <mxCell id="1009" value="" style="endArrow=none;html=1;strokeColor=#666666;fontFamily=Verdana;fontSize=16;fontColor=#DDDDDD;endFill=0;rounded=1;endSize=6;startArrow=none;startFill=0;strokeWidth=2;dashed=1;dashPattern=1 1;" parent="1" edge="1">
          <mxGeometry x="1059" y="444" width="50" height="50" as="geometry">
            <mxPoint x="1109" y="536" as="sourcePoint" />
            <mxPoint x="1254" y="514" as="targetPoint" />
            <Array as="points">
              <mxPoint x="1127" y="536" />
              <mxPoint x="1174" y="536" />
              <mxPoint x="1254" y="536" />
            </Array>
          </mxGeometry>
        </mxCell>
        <mxCell id="1010" value="" style="endArrow=oval;html=1;strokeColor=#666666;fontFamily=Verdana;fontSize=16;fontColor=#DDDDDD;endFill=1;rounded=1;endSize=6;startArrow=oval;startFill=1;strokeWidth=2;movable=1;resizable=1;rotatable=1;deletable=1;editable=1;connectable=1;" parent="1" edge="1">
          <mxGeometry x="1052" y="761" width="50" height="50" as="geometry">
            <mxPoint x="1290" y="925" as="sourcePoint" />
            <mxPoint x="1216" y="761" as="targetPoint" />
            <Array as="points">
              <mxPoint x="1337" y="925" />
              <mxPoint x="1337" y="824" />
              <mxPoint x="1216" y="824" />
            </Array>
          </mxGeometry>
        </mxCell>
        <mxCell id="1011" value="" style="endArrow=none;html=1;strokeColor=#666666;fontFamily=Verdana;fontSize=16;fontColor=#DDDDDD;endFill=0;rounded=1;endSize=6;startArrow=none;startFill=0;strokeWidth=2;dashed=1;dashPattern=1 1;" parent="1" edge="1">
          <mxGeometry x="1066" y="444" width="50" height="50" as="geometry">
            <mxPoint x="1329" y="898" as="sourcePoint" />
            <mxPoint x="1329" y="839" as="targetPoint" />
          </mxGeometry>
        </mxCell>
        <mxCell id="1012" value="" style="endArrow=none;html=1;strokeColor=#666666;fontFamily=Verdana;fontSize=16;fontColor=#DDDDDD;endFill=0;rounded=1;endSize=6;startArrow=none;startFill=0;strokeWidth=2;dashed=1;dashPattern=1 1;" parent="1" edge="1">
          <mxGeometry x="906" y="1004" width="50" height="50" as="geometry">
            <mxPoint x="1073" y="1154" as="sourcePoint" />
            <mxPoint x="1144" y="1028" as="targetPoint" />
            <Array as="points">
              <mxPoint x="1073" y="1028" />
            </Array>
          </mxGeometry>
        </mxCell>
        <mxCell id="1013" value="" style="endArrow=oval;html=1;strokeColor=#666666;fontFamily=Verdana;fontSize=16;fontColor=#DDDDDD;endFill=1;rounded=1;endSize=6;startArrow=oval;startFill=1;strokeWidth=2;movable=1;resizable=1;rotatable=1;deletable=1;editable=1;connectable=1;" parent="1" edge="1" source="QyaaS1UBhsFDGrVoqM7H-1063">
          <mxGeometry width="50" height="50" relative="1" as="geometry">
            <mxPoint x="1168" y="1210" as="sourcePoint" />
            <mxPoint x="1245" y="979" as="targetPoint" />
            <Array as="points">
              <mxPoint x="1081" y="1035" />
              <mxPoint x="1245" y="1035" />
            </Array>
          </mxGeometry>
        </mxCell>
        <mxCell id="1014" value="" style="endArrow=oval;html=1;strokeColor=#666666;fontFamily=Verdana;fontSize=16;fontColor=#DDDDDD;endFill=1;rounded=1;endSize=6;startArrow=oval;startFill=1;strokeWidth=2;movable=1;resizable=1;rotatable=1;deletable=1;editable=1;connectable=1;" parent="1" edge="1">
          <mxGeometry x="1051" y="1256" width="50" height="50" as="geometry">
            <mxPoint x="1289" y="1430" as="sourcePoint" />
            <mxPoint x="1215" y="1256" as="targetPoint" />
            <Array as="points">
              <mxPoint x="1336" y="1430" />
              <mxPoint x="1336" y="1319" />
              <mxPoint x="1215" y="1319" />
            </Array>
          </mxGeometry>
        </mxCell>
        <mxCell id="1015" value="" style="endArrow=oval;html=1;strokeColor=#666666;fontFamily=Verdana;fontSize=16;fontColor=#DDDDDD;endFill=0;rounded=1;endSize=6;startArrow=oval;startFill=0;dashed=1;strokeWidth=2;dashPattern=1 1;" parent="1" edge="1">
          <mxGeometry x="1326" y="1204" width="50" height="50" as="geometry">
            <mxPoint x="1325" y="1406" as="sourcePoint" />
            <mxPoint x="1325" y="1345" as="targetPoint" />
          </mxGeometry>
        </mxCell>
        <mxCell id="1016" value="" style="group" parent="1" vertex="1" connectable="0">
          <mxGeometry x="1212" y="358" width="66" height="66" as="geometry" />
        </mxCell>
        <mxCell id="1017" value="" style="ellipse;whiteSpace=wrap;html=1;fillColor=none;fontFamily=Verdana;fontSize=16;fontColor=#DDDDDD;strokeColor=#666666;strokeWidth=2;" parent="1016" vertex="1">
          <mxGeometry width="66" height="66" as="geometry" />
        </mxCell>
        <mxCell id="1018" value="" style="ellipse;whiteSpace=wrap;html=1;fillColor=#666666;fontFamily=Verdana;fontSize=16;fontColor=#DDDDDD;strokeColor=none;" parent="1016" vertex="1">
          <mxGeometry x="4" y="4" width="58" height="58" as="geometry" />
        </mxCell>
        <mxCell id="1019" value="" style="group" parent="1" vertex="1" connectable="0">
          <mxGeometry x="1183" y="683" width="66" height="66" as="geometry" />
        </mxCell>
        <mxCell id="1020" value="" style="ellipse;whiteSpace=wrap;html=1;fillColor=none;fontFamily=Verdana;fontSize=16;fontColor=#DDDDDD;strokeColor=#666666;strokeWidth=2;" parent="1019" vertex="1">
          <mxGeometry width="66" height="66" as="geometry" />
        </mxCell>
        <mxCell id="1021" value="" style="ellipse;whiteSpace=wrap;html=1;fillColor=#666666;fontFamily=Verdana;fontSize=16;fontColor=#DDDDDD;strokeColor=none;" parent="1019" vertex="1">
          <mxGeometry x="4" y="4" width="58" height="58" as="geometry" />
        </mxCell>
        <mxCell id="QyaaS1UBhsFDGrVoqM7H-1059" value="" style="sketch=0;outlineConnect=0;fontColor=#232F3E;gradientColor=none;fillColor=#000000;strokeColor=none;dashed=0;verticalLabelPosition=bottom;verticalAlign=top;align=center;html=1;fontSize=12;fontStyle=0;aspect=fixed;pointerEvents=1;shape=mxgraph.aws4.iot_thing_vibration_sensor;" vertex="1" parent="1019">
          <mxGeometry x="14" y="15" width="38" height="38" as="geometry" />
        </mxCell>
        <mxCell id="1022" value="" style="group" parent="1" vertex="1" connectable="0">
          <mxGeometry x="1212" y="893" width="66" height="66" as="geometry" />
        </mxCell>
        <mxCell id="1023" value="" style="ellipse;whiteSpace=wrap;html=1;fillColor=none;fontFamily=Verdana;fontSize=16;fontColor=#DDDDDD;strokeColor=#666666;strokeWidth=2;" parent="1022" vertex="1">
          <mxGeometry width="66" height="66" as="geometry" />
        </mxCell>
        <mxCell id="1024" value="" style="ellipse;whiteSpace=wrap;html=1;fillColor=#666666;fontFamily=Verdana;fontSize=16;fontColor=#DDDDDD;strokeColor=none;" parent="1022" vertex="1">
          <mxGeometry x="4" y="4" width="58" height="58" as="geometry" />
        </mxCell>
        <mxCell id="QyaaS1UBhsFDGrVoqM7H-1073" value="" style="shape=image;html=1;verticalAlign=top;verticalLabelPosition=bottom;labelBackgroundColor=#ffffff;imageAspect=0;aspect=fixed;image=https://cdn4.iconfinder.com/data/icons/aiga-symbol-signs/441/aiga_cashier-128.png" vertex="1" parent="1022">
          <mxGeometry x="9" y="10" width="47" height="47" as="geometry" />
        </mxCell>
        <mxCell id="1025" value="" style="group" parent="1" vertex="1" connectable="0">
          <mxGeometry x="1183" y="1177" width="66" height="66" as="geometry" />
        </mxCell>
        <mxCell id="1026" value="" style="ellipse;whiteSpace=wrap;html=1;fillColor=none;fontFamily=Verdana;fontSize=16;fontColor=#DDDDDD;strokeColor=#666666;strokeWidth=2;" parent="1025" vertex="1">
          <mxGeometry width="66" height="66" as="geometry" />
        </mxCell>
        <mxCell id="1027" value="" style="ellipse;whiteSpace=wrap;html=1;fillColor=#666666;fontFamily=Verdana;fontSize=16;fontColor=#DDDDDD;strokeColor=none;" parent="1025" vertex="1">
          <mxGeometry x="4" y="4" width="58" height="58" as="geometry" />
        </mxCell>
        <mxCell id="1028" value="" style="group" parent="1" vertex="1" connectable="0">
          <mxGeometry x="1212" y="1396" width="66" height="66" as="geometry" />
        </mxCell>
        <mxCell id="1029" value="" style="ellipse;whiteSpace=wrap;html=1;fillColor=none;fontFamily=Verdana;fontSize=16;fontColor=#DDDDDD;strokeColor=#666666;strokeWidth=2;" parent="1028" vertex="1">
          <mxGeometry width="66" height="66" as="geometry" />
        </mxCell>
        <mxCell id="1030" value="" style="ellipse;whiteSpace=wrap;html=1;fillColor=#666666;fontFamily=Verdana;fontSize=16;fontColor=#DDDDDD;strokeColor=none;" parent="1028" vertex="1">
          <mxGeometry x="4" y="4" width="58" height="58" as="geometry" />
        </mxCell>
        <mxCell id="1035" value="" style="whiteSpace=wrap;html=1;strokeColor=#282828;strokeWidth=1;fillColor=none;fontFamily=Verdana;fontSize=16;fontColor=#DDDDDD;dashed=1;" parent="1" vertex="1">
          <mxGeometry x="1229" y="1410" width="31" height="39" as="geometry" />
        </mxCell>
        <mxCell id="1036" value="" style="whiteSpace=wrap;html=1;dashed=1;strokeColor=none;strokeWidth=1;fillColor=#282828;fontFamily=Verdana;fontSize=16;fontColor=#DDDDDD;" parent="1" vertex="1">
          <mxGeometry x="1235" y="1415" width="8" height="8" as="geometry" />
        </mxCell>
        <mxCell id="1037" value="" style="whiteSpace=wrap;html=1;dashed=1;strokeColor=none;strokeWidth=1;fillColor=#282828;fontFamily=Verdana;fontSize=16;fontColor=#DDDDDD;" parent="1" vertex="1">
          <mxGeometry x="1246" y="1415" width="8" height="8" as="geometry" />
        </mxCell>
        <mxCell id="1038" value="" style="whiteSpace=wrap;html=1;dashed=1;strokeColor=none;strokeWidth=1;fillColor=#282828;fontFamily=Verdana;fontSize=16;fontColor=#DDDDDD;" parent="1" vertex="1">
          <mxGeometry x="1235" y="1426" width="8" height="8" as="geometry" />
        </mxCell>
        <mxCell id="1039" value="" style="whiteSpace=wrap;html=1;dashed=1;strokeColor=none;strokeWidth=1;fillColor=#282828;fontFamily=Verdana;fontSize=16;fontColor=#DDDDDD;" parent="1" vertex="1">
          <mxGeometry x="1235" y="1437" width="8" height="8" as="geometry" />
        </mxCell>
        <mxCell id="1040" value="" style="whiteSpace=wrap;html=1;dashed=1;strokeColor=none;strokeWidth=1;fillColor=#282828;fontFamily=Verdana;fontSize=16;fontColor=#DDDDDD;" parent="1" vertex="1">
          <mxGeometry x="1246" y="1426" width="8" height="19" as="geometry" />
        </mxCell>
        <mxCell id="1045" value="" style="endArrow=none;html=1;strokeColor=#282828;strokeWidth=3;fontFamily=Verdana;fontSize=16;fontColor=#DDDDDD;endFill=0;" parent="1" edge="1">
          <mxGeometry x="1223" y="392" width="50" height="50" as="geometry">
            <mxPoint x="1222" y="392" as="sourcePoint" />
            <mxPoint x="1234" y="392" as="targetPoint" />
          </mxGeometry>
        </mxCell>
        <mxCell id="1046" value="" style="endArrow=none;html=1;strokeColor=#282828;strokeWidth=3;fontFamily=Verdana;fontSize=16;fontColor=#DDDDDD;endFill=0;" parent="1" edge="1">
          <mxGeometry x="1240" y="394" width="50" height="50" as="geometry">
            <mxPoint x="1239" y="394" as="sourcePoint" />
            <mxPoint x="1251" y="394" as="targetPoint" />
          </mxGeometry>
        </mxCell>
        <mxCell id="1047" value="" style="endArrow=none;html=1;strokeColor=#282828;strokeWidth=3;fontFamily=Verdana;fontSize=16;fontColor=#DDDDDD;endFill=0;" parent="1" edge="1">
          <mxGeometry x="1240" y="389" width="50" height="50" as="geometry">
            <mxPoint x="1239" y="389" as="sourcePoint" />
            <mxPoint x="1251" y="389" as="targetPoint" />
          </mxGeometry>
        </mxCell>
        <mxCell id="1048" value="" style="endArrow=none;html=1;strokeColor=#282828;strokeWidth=3;fontFamily=Verdana;fontSize=16;fontColor=#DDDDDD;endFill=0;" parent="1" edge="1">
          <mxGeometry x="1257" y="392" width="50" height="50" as="geometry">
            <mxPoint x="1256" y="392" as="sourcePoint" />
            <mxPoint x="1268" y="392" as="targetPoint" />
          </mxGeometry>
        </mxCell>
        <mxCell id="1049" value="" style="endArrow=none;html=1;strokeColor=#282828;strokeWidth=3;fontFamily=Verdana;fontSize=16;fontColor=#DDDDDD;endFill=0;rotation=0;" parent="1" edge="1">
          <mxGeometry x="1256" y="393" width="50" height="50" as="geometry">
            <mxPoint x="1262" y="387" as="sourcePoint" />
            <mxPoint x="1262" y="398" as="targetPoint" />
          </mxGeometry>
        </mxCell>
        <mxCell id="QyaaS1UBhsFDGrVoqM7H-1062" value="VRIJEME JE NOVAC" style="text;html=1;resizable=0;points=[];autosize=1;align=left;verticalAlign=top;spacingTop=-4;fontSize=24;fontFamily=Verdana;fontColor=#DDDDDD;fontStyle=1" vertex="1" parent="1">
          <mxGeometry x="948" y="846" width="260" height="40" as="geometry" />
        </mxCell>
        <mxCell id="QyaaS1UBhsFDGrVoqM7H-1064" value="&lt;div style=&quot;line-height: 120%&quot;&gt;Stanje kante ili kontejnera na terenu&amp;nbsp;&lt;/div&gt;&lt;div style=&quot;line-height: 120%&quot;&gt;određuje rutu radnika&lt;/div&gt;" style="text;resizable=0;points=[];autosize=1;align=left;verticalAlign=top;spacingTop=-4;fontSize=16;fontFamily=Verdana;fontColor=#888888;html=1;" vertex="1" parent="1">
          <mxGeometry x="949" y="919" width="260" height="50" as="geometry" />
        </mxCell>
        <mxCell id="QyaaS1UBhsFDGrVoqM7H-1072" value="" style="endArrow=oval;html=1;strokeColor=#666666;fontFamily=Verdana;fontSize=16;fontColor=#DDDDDD;endFill=1;rounded=1;endSize=6;startArrow=oval;startFill=1;strokeWidth=2;movable=1;resizable=1;rotatable=1;deletable=1;editable=1;connectable=1;" edge="1" parent="1" target="QyaaS1UBhsFDGrVoqM7H-1063">
          <mxGeometry width="50" height="50" relative="1" as="geometry">
            <mxPoint x="1168" y="1210" as="sourcePoint" />
            <mxPoint x="1245" y="979" as="targetPoint" />
            <Array as="points">
              <mxPoint x="1081" y="1210" />
            </Array>
          </mxGeometry>
        </mxCell>
        <mxCell id="QyaaS1UBhsFDGrVoqM7H-1063" value="Automatski-generisana ruta se može&amp;nbsp;&lt;br&gt;mijenjati u zavisnosti od saobraćaja" style="text;html=1;resizable=0;points=[];autosize=1;align=left;verticalAlign=top;spacingTop=-4;fontSize=16;fontColor=#888888;fontFamily=Verdana;" vertex="1" parent="1">
          <mxGeometry x="948" y="970" width="260" height="50" as="geometry" />
        </mxCell>
        <mxCell id="QyaaS1UBhsFDGrVoqM7H-1075" value="Sekvenca događaja identifikuje&lt;br style=&quot;border-color: var(--border-color);&quot;&gt;pražnjenje kante kao&amp;nbsp;&lt;br&gt;zaustavljanje vozila, &lt;br&gt;% mase na 0, te&lt;br&gt;povećanje mase vozila&amp;nbsp;" style="text;html=1;resizable=0;points=[];autosize=1;align=left;verticalAlign=top;spacingTop=-4;fontSize=16;fontColor=#888888;fontFamily=Verdana;" vertex="1" parent="1">
          <mxGeometry x="1275" y="1169" width="220" height="100" as="geometry" />
        </mxCell>
      </root>
    </mxGraphModel>
  </diagram>
</mxfile>
